<svg width="122" height="52" viewBox="0 0 122 52" fill="none" xmlns="http://www.w3.org/2000/svg">
<path fill-rule="evenodd" clip-rule="evenodd" d="M115.651 28.7721V18.2431H121.646V19.5042H117.026V22.634H121.136V23.8646H117.026V27.511H122V28.7721H115.651ZM107.714 27.3135C107.62 27.0704 107.495 26.7615 107.339 26.3867C107.183 26.012 107.015 25.6068 106.836 25.1713C106.656 24.7357 106.465 24.2875 106.262 23.8267C106.059 23.3658 105.867 22.9303 105.688 22.52C105.508 22.1098 105.341 21.7427 105.185 21.4185C105.029 21.0944 104.904 20.8462 104.809 20.674C104.705 21.8693 104.62 23.1632 104.554 24.5559C104.488 25.9487 104.431 27.3541 104.384 28.7721H103.038C103.075 27.8605 103.118 26.9413 103.165 26.0145C103.212 25.0877 103.267 24.1761 103.328 23.2797C103.389 22.3833 103.456 21.5097 103.526 20.6588C103.597 19.808 103.675 19.0028 103.76 18.2431H104.965C105.22 18.6888 105.494 19.2155 105.787 19.8232C106.08 20.4309 106.373 21.0665 106.666 21.73C106.959 22.3934 107.242 23.0569 107.516 23.7203C107.79 24.3837 108.04 24.989 108.267 25.5359C108.494 24.9889 108.744 24.3837 109.018 23.7203C109.292 23.0569 109.576 22.3934 109.869 21.73C110.162 21.0665 110.455 20.4309 110.747 19.8232C111.04 19.2155 111.314 18.6888 111.569 18.2431H112.774C113.095 21.6363 113.336 25.1459 113.497 28.7721H112.151C112.103 27.3541 112.047 25.9487 111.98 24.5559C111.914 23.1632 111.829 21.8692 111.725 20.674C111.631 20.8462 111.506 21.0944 111.35 21.4185C111.194 21.7427 111.026 22.1098 110.847 22.52C110.667 22.9303 110.476 23.3658 110.273 23.8267C110.069 24.2875 109.878 24.7357 109.699 25.1713C109.519 25.6068 109.351 26.012 109.196 26.3867C109.04 26.7615 108.914 27.0705 108.82 27.3135H107.714ZM99.1825 24.8674C98.8802 23.9862 98.5802 23.1328 98.2826 22.3073C97.9849 21.4818 97.6755 20.6892 97.3543 19.9296C97.0236 20.6892 96.7094 21.4818 96.4118 22.3073C96.1142 23.1328 95.8189 23.9862 95.526 24.8674H99.1825ZM100.472 28.7721C100.312 28.3163 100.16 27.8681 100.019 27.4275C99.877 26.9869 99.7305 26.5387 99.5794 26.0829H95.1291L94.2363 28.7721H92.8048C93.1828 27.6579 93.5371 26.6273 93.8678 25.6803C94.1985 24.7332 94.5221 23.8343 94.8386 22.9834C95.1551 22.1326 95.4693 21.3197 95.7811 20.5449C96.0929 19.77 96.4189 19.0028 96.759 18.2431H98.0204C98.3605 19.0028 98.6865 19.77 98.9983 20.5449C99.3101 21.3197 99.6242 22.1326 99.9408 22.9834C100.257 23.8343 100.581 24.7332 100.912 25.6803C101.242 26.6273 101.597 27.6579 101.975 28.7721H100.472ZM87.32 19.4282C86.7342 19.4282 86.2854 19.4434 85.9736 19.4738V23.4392H86.9515C87.424 23.4392 87.8491 23.4139 88.2271 23.3633C88.605 23.3126 88.9239 23.2164 89.1837 23.0746C89.4436 22.9328 89.6443 22.7327 89.7861 22.4745C89.9278 22.2162 89.9987 21.8743 89.9987 21.4489C89.9987 21.0539 89.9278 20.7247 89.7861 20.4613C89.6443 20.198 89.453 19.9904 89.2121 19.8384C88.9711 19.6865 88.6877 19.5801 88.3617 19.5194C88.0357 19.4586 87.6885 19.4282 87.32 19.4282V19.4282ZM89.4034 24.366C89.5546 24.5686 89.7459 24.8345 89.9774 25.1637C90.2089 25.4929 90.4474 25.8575 90.6931 26.2576C90.9388 26.6577 91.1821 27.0755 91.423 27.511C91.6639 27.9466 91.8694 28.367 92.0395 28.7721H90.5372C90.3482 28.3872 90.1427 27.9972 89.9207 27.6022C89.6987 27.2072 89.4743 26.8299 89.2475 26.4703C89.0207 26.1107 88.7963 25.7739 88.5743 25.4599C88.3523 25.1459 88.1515 24.8725 87.972 24.6395C87.8491 24.6496 87.7239 24.6547 87.5964 24.6547C87.4688 24.6547 87.3389 24.6547 87.2066 24.6547H85.9736V28.7721H84.5989V18.395C84.9863 18.2938 85.4185 18.2254 85.8957 18.1899C86.3728 18.1545 86.8098 18.1368 87.2066 18.1368C88.5861 18.1368 89.6372 18.4153 90.3601 18.9724C91.0828 19.5295 91.4443 20.36 91.4443 21.4641C91.4443 22.163 91.2718 22.7606 90.927 23.2569C90.5821 23.7532 90.0742 24.123 89.4034 24.366V24.366ZM76.9882 28.7721V18.2431H82.9123V19.5042H78.3629V22.6796H82.4021V23.9254H78.3629V28.7721H76.9882ZM75.5425 27.4958V28.7721H69.6325V18.2431H71.0073V27.4958H75.5425ZM68.187 27.4958V28.7721H62.277V18.2431H63.6517V27.4958H68.187ZM54.1844 28.7721V18.2431H60.1794V19.5042H55.5591V22.634H59.6692V23.8646H55.5591V27.511H60.5337V28.7721H54.1844ZM49.6208 29C48.931 29 48.3027 28.8784 47.7358 28.6354C47.1689 28.3922 46.6823 28.0378 46.276 27.5718C45.8697 27.1059 45.5556 26.5311 45.3335 25.8474C45.1115 25.1637 45.0005 24.3812 45.0005 23.5C45.0005 22.6188 45.1257 21.8363 45.3761 21.1526C45.6264 20.4689 45.9642 19.8941 46.3894 19.4282C46.8146 18.9622 47.3106 18.6077 47.8775 18.3647C48.4444 18.1215 49.0491 18 49.6916 18C50.0979 18 50.464 18.0304 50.79 18.0912C51.116 18.152 51.3994 18.2228 51.6404 18.3039C51.8813 18.3849 52.0774 18.4659 52.2285 18.547C52.3797 18.628 52.4836 18.6888 52.5403 18.7293L52.1435 19.9448C52.0585 19.884 51.9356 19.8181 51.775 19.7472C51.6144 19.6763 51.4325 19.6055 51.2294 19.5345C51.0262 19.4636 50.8042 19.4054 50.5633 19.3598C50.3223 19.3142 50.079 19.2914 49.8334 19.2914C49.3137 19.2914 48.846 19.3877 48.4303 19.5801C48.0145 19.7726 47.6602 20.0511 47.3673 20.4158C47.0744 20.7804 46.85 21.2235 46.6941 21.7452C46.5382 22.2668 46.4603 22.8517 46.4603 23.5C46.4603 24.128 46.5288 24.7003 46.6658 25.2169C46.8028 25.7334 47.0083 26.1766 47.2823 26.5463C47.5563 26.916 47.8988 27.2021 48.3098 27.4047C48.7208 27.6073 49.2003 27.7086 49.7483 27.7086C50.3814 27.7086 50.9058 27.6377 51.3215 27.4958C51.7372 27.354 52.049 27.2274 52.2569 27.116L52.6112 28.3315C52.5451 28.3821 52.427 28.4454 52.2569 28.5214C52.0868 28.5974 51.8742 28.6708 51.6191 28.7417C51.364 28.8126 51.0664 28.8734 50.7262 28.924C50.3861 28.9747 50.0176 29 49.6208 29Z" fill="white"/>
<g filter="url(#filter0_d_1_1310)">
<path fill-rule="evenodd" clip-rule="evenodd" d="M18.7363 14.978H18.7363C18.1901 14.978 17.7473 14.5352 17.7473 13.989C17.7473 13.9314 17.7522 13.8749 17.7617 13.82C17.8418 13.3543 18.2477 13 18.7363 13H18.7363H18.7363C19.2825 13 19.7253 13.4428 19.7253 13.989C19.7253 14.0722 19.715 14.153 19.6957 14.2302C19.588 14.6598 19.1993 14.978 18.7363 14.978H18.7363ZM26.8461 14.3845C26.8461 13.8384 27.289 13.3956 27.8352 13.3956C28.3814 13.3956 28.8242 13.8384 28.8242 14.3845C28.8242 14.9308 28.3814 15.3736 27.8352 15.3736C27.289 15.3736 26.8461 14.9308 26.8461 14.3845ZM30.5384 14.9121C30.5384 14.8973 30.5388 14.8826 30.5395 14.868C30.5625 14.4151 30.937 14.0549 31.3956 14.0549C31.869 14.0549 32.2528 14.4387 32.2528 14.9121C32.2528 15.1488 32.1568 15.363 32.0017 15.5181C31.8466 15.6733 31.6323 15.7692 31.3956 15.7692C30.9222 15.7692 30.5384 15.3854 30.5384 14.9121ZM24.5385 16.0329H24.5384C23.975 16.0329 23.5087 15.6172 23.4294 15.0758C23.4216 15.0224 23.4176 14.9677 23.4176 14.9121C23.4176 14.293 23.9194 13.7912 24.5384 13.7912H24.5385H24.5385C25.0487 13.7912 25.4793 14.1321 25.6149 14.5986C25.6438 14.6981 25.6594 14.8032 25.6594 14.9121C25.6594 15.5311 25.1575 16.0329 24.5385 16.0329H24.5385ZM34.2967 17.6153H34.2967C33.9431 17.6153 33.6486 17.3623 33.5844 17.0274C33.5759 16.9829 33.5714 16.937 33.5714 16.8901C33.5714 16.4895 33.8962 16.1648 34.2967 16.1648H34.2967H34.2967C34.6472 16.1648 34.9396 16.4134 35.0072 16.7439C35.0169 16.7911 35.022 16.84 35.022 16.8901C35.022 17.2906 34.6973 17.6153 34.2967 17.6153L34.2967 17.6153ZM16.5616 17.7454C15.9727 17.7118 15.5055 17.2236 15.5055 16.6263C15.5055 16.0073 16.0074 15.5055 16.6264 15.5055C17.2454 15.5055 17.7473 16.0073 17.7473 16.6263C17.7473 17.2454 17.2454 17.7472 16.6264 17.7472C16.6047 17.7472 16.583 17.7466 16.5616 17.7454V17.7454ZM21.2418 17.8791H21.2418C20.5499 17.8791 19.989 17.3182 19.989 16.6263C19.989 16.548 19.9962 16.4713 20.01 16.3969C20.1178 15.8146 20.6283 15.3736 21.2418 15.3736H21.2418H21.2418C21.9337 15.3736 22.4946 15.9345 22.4946 16.6264C22.4946 17.3182 21.9337 17.8791 21.2418 17.8791L21.2418 17.8791ZM35.8132 19.6594C35.8132 19.3316 36.0789 19.0659 36.4066 19.0659C36.7343 19.0659 37 19.3316 37 19.6594C37 19.987 36.7344 20.2527 36.4066 20.2527C36.0789 20.2527 35.8132 19.987 35.8132 19.6594ZM23.5649 20.911C22.9693 20.8846 22.4945 20.3933 22.4945 19.7912C22.4945 19.1721 22.9964 18.6703 23.6154 18.6703C24.2344 18.6703 24.7363 19.1721 24.7363 19.7912C24.7363 20.3933 24.2615 20.8846 23.6659 20.911C23.6492 20.9117 23.6323 20.9121 23.6154 20.9121C23.5985 20.9121 23.5816 20.9117 23.5649 20.911ZM15.1758 21.0439H15.1758C14.4839 21.0439 13.9231 20.483 13.9231 19.7912C13.9231 19.0993 14.4839 18.5384 15.1758 18.5384H15.1758H15.1759C15.8677 18.5384 16.4286 19.0993 16.4286 19.7912C16.4286 20.483 15.8677 21.0439 15.1759 21.0439H15.1758ZM18.011 19.6593C18.011 18.8946 18.6309 18.2747 19.3956 18.2747C20.1603 18.2747 20.7802 18.8946 20.7802 19.6593C20.7802 20.4241 20.1603 21.044 19.3956 21.044C18.6309 21.044 18.011 20.4241 18.011 19.6593ZM24.8682 23.2197C24.8682 22.6007 25.37 22.0989 25.989 22.0989C26.6081 22.0989 27.1099 22.6007 27.1099 23.2197C27.1099 23.8388 26.6081 24.3407 25.989 24.3407C25.37 24.3407 24.8682 23.8388 24.8682 23.2197ZM21.1768 23.2681C21.1761 23.2521 21.1758 23.2359 21.1758 23.2197C21.1758 22.5279 21.7367 21.967 22.4286 21.967C23.1205 21.967 23.6813 22.5278 23.6813 23.2197C23.6813 23.2359 23.681 23.2521 23.6804 23.2681C23.655 23.9376 23.1042 24.4725 22.4286 24.4725C21.7529 24.4725 21.2022 23.9376 21.1768 23.2681ZM13 23.3516C13 22.5869 13.6199 21.967 14.3846 21.967C15.1493 21.967 15.7692 22.5869 15.7692 23.3516C15.7692 24.1163 15.1493 24.7362 14.3846 24.7362C13.6199 24.7362 13 24.1163 13 23.3516ZM16.9561 23.3516C16.9561 22.5141 17.635 21.8352 18.4726 21.8352C19.3101 21.8352 19.989 22.5141 19.989 23.3516C19.989 24.1891 19.3101 24.8681 18.4726 24.8681C17.635 24.8681 16.9561 24.1891 16.9561 23.3516ZM23.3019 27.7248C22.8355 27.5892 22.4946 27.1586 22.4946 26.6483V26.6483V26.6483C22.4946 26.0848 22.9103 25.6185 23.4517 25.5393C23.5051 25.5315 23.5598 25.5274 23.6154 25.5274C23.671 25.5274 23.7257 25.5315 23.7792 25.5393C24.3206 25.6185 24.7363 26.0848 24.7363 26.6483V26.6483V26.6483C24.7363 27.1586 24.3954 27.5892 23.9289 27.7248C23.8294 27.7537 23.7242 27.7692 23.6154 27.7692C23.5066 27.7692 23.4014 27.7537 23.3019 27.7248ZM15.1758 28.1648H15.1758C14.4839 28.1648 13.9231 27.6039 13.9231 26.912C13.9231 26.2202 14.4839 25.6593 15.1758 25.6593H15.1758H15.1759C15.8677 25.6593 16.4286 26.2202 16.4286 26.912C16.4286 27.6039 15.8677 28.1648 15.1759 28.1648H15.1758ZM35.8132 27.7032C35.8132 27.3755 36.0789 27.1099 36.4066 27.1099C36.7343 27.1099 37 27.3755 37 27.7032C37 28.031 36.7344 28.2967 36.4066 28.2967C36.0789 28.2967 35.8132 28.031 35.8132 27.7032ZM18.011 27.0439C18.011 26.2792 18.6309 25.6593 19.3956 25.6593C20.1603 25.6593 20.7802 26.2792 20.7802 27.0439C20.7802 27.8086 20.1603 28.4285 19.3956 28.4285C18.6309 28.4285 18.011 27.8086 18.011 27.0439ZM34.2967 31.1978H34.2967C33.9431 31.1978 33.6486 30.9447 33.5844 30.6098C33.5759 30.5653 33.5714 30.5194 33.5714 30.4725C33.5714 30.072 33.8962 29.7472 34.2967 29.7472H34.2967H34.2967C34.6472 29.7472 34.9396 29.9959 35.0072 30.3263C35.0169 30.3735 35.022 30.4224 35.022 30.4725C35.022 30.8731 34.6973 31.1978 34.2967 31.1978L34.2967 31.1978ZM16.5616 31.3278C15.9727 31.2942 15.5055 30.8061 15.5055 30.2088C15.5055 29.5897 16.0074 29.0879 16.6264 29.0879C17.2454 29.0879 17.7473 29.5897 17.7473 30.2088C17.7473 30.8278 17.2454 31.3296 16.6264 31.3296C16.6047 31.3296 16.583 31.329 16.5616 31.3278V31.3278ZM21.2418 31.7252H21.2418C20.5499 31.7252 19.989 31.1643 19.989 30.4725C19.989 30.3941 19.9962 30.3174 20.01 30.243C20.1178 29.6607 20.6283 29.2197 21.2418 29.2197H21.2418H21.2418C21.9337 29.2197 22.4946 29.7806 22.4946 30.4725C22.4946 31.1643 21.9337 31.7252 21.2418 31.7252H21.2418ZM30.5384 32.3186C30.5384 32.3038 30.5388 32.2891 30.5395 32.2745C30.5625 31.8216 30.937 31.4615 31.3956 31.4615C31.869 31.4615 32.2528 31.8453 32.2528 32.3186C32.2528 32.781 31.8867 33.1578 31.4287 33.1752C31.4177 33.1756 31.4067 33.1758 31.3956 33.1758C30.9222 33.1758 30.5384 32.7921 30.5384 32.3186V32.3186ZM24.5385 33.5714H24.5384C23.975 33.5714 23.5087 33.1557 23.4294 32.6142C23.4216 32.5608 23.4176 32.5061 23.4176 32.4505C23.4176 31.8315 23.9194 31.3296 24.5384 31.3296H24.5385H24.5385C25.0487 31.3296 25.4793 31.6706 25.6149 32.137C25.6438 32.2365 25.6594 32.3417 25.6594 32.4505C25.6594 33.0695 25.1575 33.5714 24.5385 33.5714L24.5385 33.5714ZM26.8461 32.9779C26.8461 32.4318 27.289 31.989 27.8352 31.989C28.3814 31.989 28.8242 32.4318 28.8242 32.9779C28.8242 33.5242 28.3814 33.967 27.8352 33.967C27.289 33.967 26.8461 33.5242 26.8461 32.9779ZM18.7363 34.2307H18.7363C18.1901 34.2307 17.7473 33.7879 17.7473 33.2417C17.7473 33.1841 17.7522 33.1277 17.7617 33.0727C17.8418 32.607 18.2477 32.2527 18.7363 32.2527H18.7363H18.7363C19.2825 32.2527 19.7253 32.6955 19.7253 33.2417C19.7253 33.3249 19.715 33.4057 19.6957 33.4829C19.588 33.9125 19.1993 34.2307 18.7363 34.2307H18.7363Z" fill="url(#paint0_linear_1_1310)"/>
</g>
<defs>
<filter id="filter0_d_1_1310" x="0" y="0" width="54" height="51.2307" filterUnits="userSpaceOnUse" color-interpolation-filters="sRGB">
<feFlood flood-opacity="0" result="BackgroundImageFix"/>
<feColorMatrix in="SourceAlpha" type="matrix" values="0 0 0 0 0 0 0 0 0 0 0 0 0 0 0 0 0 0 127 0" result="hardAlpha"/>
<feOffset dx="2" dy="2"/>
<feGaussianBlur stdDeviation="7.5"/>
<feColorMatrix type="matrix" values="0 0 0 0 0.0705882 0 0 0 0 0.00784314 0 0 0 0 0.133333 0 0 0 0.9 0"/>
<feBlend mode="normal" in2="BackgroundImageFix" result="effect1_dropShadow_1_1310"/>
<feBlend mode="normal" in="SourceGraphic" in2="effect1_dropShadow_1_1310" result="shape"/>
</filter>
<linearGradient id="paint0_linear_1_1310" x1="24.0334" y1="44.8453" x2="45.3232" y2="22.7178" gradientUnits="userSpaceOnUse">
<stop stop-color="#964BFF"/>
<stop offset="0.37" stop-color="#A695FF"/>
<stop offset="0.65" stop-color="#3CE9FF"/>
<stop offset="0.86" stop-color="#CAFF2C"/>
<stop offset="1" stop-color="#FFFF21"/>
</linearGradient>
</defs>
</svg>
